<svg width="50" height="43" viewBox="0 0 50 43" fill="none" xmlns="http://www.w3.org/2000/svg">
<path d="M6.90807 25.1726L24.3216 41.2488C24.6435 41.5459 24.8044 41.6945 25 41.6945C25.1955 41.6945 25.3564 41.5459 25.6783 41.2488L43.0918 25.1726C45.314 23.1211 46.4251 22.0953 47.0945 20.9687C48.522 18.5662 48.7525 15.6369 47.7182 13.0408C47.2333 11.8233 46.2962 10.6364 44.4222 8.26268L44.4222 8.26263L43.7881 7.45949C41.6537 4.75579 40.5864 3.40394 39.5483 2.70554C36.3161 0.530931 31.9875 1.00067 29.297 3.818C28.4329 4.72282 27.6805 6.27213 26.1757 9.37074L26.1757 9.37076C25.941 9.85388 25.8237 10.0954 25.6998 10.2168C25.311 10.5978 24.6889 10.5978 24.3001 10.2168C24.1762 10.0954 24.0589 9.85388 23.8243 9.37076C22.3194 6.27213 21.567 4.72282 20.7029 3.818C18.0124 1.00067 13.6838 0.530931 10.4516 2.70554C9.41351 3.40394 8.34627 4.75579 6.21178 7.45948L5.57771 8.26262L5.5777 8.26265C3.70368 10.6364 2.76666 11.8233 2.28167 13.0408C1.24745 15.6369 1.47791 18.5662 2.90538 20.9687C3.5748 22.0953 4.68589 23.1211 6.90807 25.1726Z" fill="#366ACE" stroke="#F1F6FA" stroke-width="2"/>
</svg>
